<svg xmlns="http://www.w3.org/2000/svg" xmlns:xlink="http://www.w3.org/1999/xlink" width="500" zoomAndPan="magnify" viewBox="0 0 375 374.999991" height="500" preserveAspectRatio="xMidYMid meet" version="1.0"><path fill="#d9d9d9" d="M 314.414062 175.609375 C 314.414062 174.046875 313.152344 172.78125 311.585938 172.78125 L 307.398438 172.78125 C 305.832031 172.78125 304.570312 174.050781 304.570312 175.617188 L 304.570312 219.414062 C 304.570312 220.980469 305.835938 222.246094 307.398438 222.246094 L 311.589844 222.246094 C 313.152344 222.246094 314.414062 220.972656 314.414062 219.410156 Z M 319.75 176.773438 L 319.75 178.859375 C 319.75 179.71875 320.457031 180.414062 321.316406 180.414062 L 350.207031 180.414062 C 351.523438 180.414062 352.59375 179.351562 352.59375 178.03125 L 352.59375 174.507812 C 352.59375 173.1875 351.511719 171.996094 350.207031 172.128906 C 350.207031 172.128906 322.273438 174.867188 321.378906 174.96875 C 321.15625 174.988281 320.941406 175.046875 320.738281 175.148438 C 320.539062 175.25 320.363281 175.382812 320.210938 175.550781 C 320.058594 175.71875 319.945312 175.90625 319.863281 176.121094 C 319.785156 176.332031 319.746094 176.550781 319.75 176.773438 Z M 296.363281 222.25 C 289.175781 222.25 284.648438 216.796875 284.648438 210.730469 L 284.648438 193.207031 L 282.589844 193.207031 C 282.328125 193.207031 282.074219 193.15625 281.832031 193.058594 C 281.589844 192.957031 281.375 192.8125 281.1875 192.628906 C 281.003906 192.441406 280.859375 192.226562 280.757812 191.984375 C 280.65625 191.742188 280.605469 191.488281 280.605469 191.226562 L 280.605469 188.292969 C 280.605469 187.199219 281.496094 186.316406 282.597656 186.316406 L 284.648438 186.320312 L 284.644531 175.546875 C 284.644531 174.019531 285.871094 172.78125 287.398438 172.78125 L 291.484375 172.78125 C 293.007812 172.78125 294.242188 174.027344 294.242188 175.554688 L 294.242188 186.320312 L 300.609375 186.320312 C 301.703125 186.320312 302.597656 187.199219 302.597656 188.296875 L 302.597656 191.230469 C 302.597656 192.328125 301.707031 193.210938 300.617188 193.210938 L 294.242188 193.207031 L 294.25 209.417969 C 294.25 212.597656 296.179688 214.773438 299.621094 214.773438 L 300.203125 214.773438 C 301.394531 214.773438 302.359375 215.730469 302.359375 216.917969 L 302.359375 220.101562 C 302.359375 221.292969 301.394531 222.25 300.207031 222.25 Z M 229.058594 185.054688 C 217.4375 185.054688 210.921875 194.148438 210.921875 203.730469 C 210.921875 213.941406 217.902344 222.929688 229.132812 222.929688 C 236.820312 222.929688 244.398438 218.878906 245.832031 212.230469 C 246.023438 211.332031 245.421875 210.15625 244.15625 210.148438 L 238.660156 210.152344 C 237.664062 210.152344 236.851562 210.628906 236.359375 211.347656 C 234.785156 213.652344 232.484375 214.875 229.082031 214.875 C 224.269531 214.875 220.933594 211.085938 220.683594 206.882812 L 244.042969 206.882812 C 246.191406 206.882812 247.15625 205.714844 247.15625 203.726562 C 247.15625 194.386719 241.621094 185.054688 229.058594 185.054688 Z M 229.058594 192.554688 C 233.34375 192.554688 237.046875 195.605469 237.425781 199.734375 L 220.753906 199.734375 C 221.128906 195.605469 224.769531 192.554688 229.058594 192.554688 Z M 335.5 185.054688 C 323.878906 185.054688 317.363281 194.148438 317.363281 203.730469 C 317.363281 213.941406 324.34375 222.929688 335.574219 222.929688 C 343.261719 222.929688 350.839844 218.878906 352.269531 212.230469 C 352.464844 211.332031 351.859375 210.15625 350.597656 210.148438 L 345.105469 210.152344 C 344.105469 210.152344 343.289062 210.628906 342.800781 211.347656 C 341.226562 213.652344 338.925781 214.875 335.523438 214.875 C 330.710938 214.875 327.375 211.085938 327.125 206.882812 L 350.480469 206.882812 C 352.632812 206.882812 353.597656 205.714844 353.597656 203.726562 C 353.597656 194.386719 348.0625 185.054688 335.5 185.054688 Z M 335.5 192.554688 C 339.785156 192.554688 343.492188 195.605469 343.863281 199.734375 L 327.191406 199.734375 C 327.566406 195.605469 331.207031 192.554688 335.5 192.554688 Z M 335.5 192.554688 " fill-opacity="1" fill-rule="evenodd"/><path fill="#d9d9d9" d="M 276.789062 173.269531 L 201.125 173.269531 C 199.40625 173.269531 198.019531 174.667969 198.019531 176.386719 L 198.277344 206.101562 C 198.277344 206.101562 181.972656 176.648438 181.125 175.148438 C 180.324219 173.738281 178.609375 172.433594 176.230469 172.433594 L 170.007812 172.433594 C 168.289062 172.433594 166.894531 173.832031 166.894531 175.550781 L 166.898438 219.128906 C 166.898438 220.851562 168.289062 222.246094 170.011719 222.246094 L 174 222.246094 C 174.414062 222.246094 174.8125 222.164062 175.195312 222.003906 C 175.574219 221.847656 175.910156 221.621094 176.203125 221.328125 C 176.496094 221.035156 176.71875 220.699219 176.878906 220.316406 C 177.035156 219.933594 177.113281 219.535156 177.113281 219.125 L 176.863281 188.574219 C 176.863281 188.574219 193.324219 218.316406 194.027344 219.488281 C 194.976562 221.074219 196.585938 222.246094 198.914062 222.246094 L 204.628906 222.246094 C 206.351562 222.246094 207.738281 220.851562 207.738281 219.128906 L 207.734375 180.65625 L 276.792969 180.65625 C 277.074219 180.65625 277.347656 180.605469 277.605469 180.496094 C 277.867188 180.390625 278.097656 180.234375 278.296875 180.035156 C 278.496094 179.839844 278.648438 179.609375 278.757812 179.347656 C 278.867188 179.089844 278.917969 178.816406 278.917969 178.535156 L 278.917969 175.390625 C 278.917969 175.109375 278.863281 174.835938 278.753906 174.578125 C 278.648438 174.316406 278.492188 174.085938 278.292969 173.890625 C 278.09375 173.691406 277.863281 173.539062 277.601562 173.429688 C 277.34375 173.324219 277.070312 173.269531 276.789062 173.269531 Z M 276.789062 173.269531 " fill-opacity="1" fill-rule="evenodd"/><path fill="#d9d9d9" d="M 264.542969 192.191406 C 267.832031 192.191406 270.292969 193.386719 271.179688 195.445312 C 271.605469 196.441406 272.429688 196.628906 273.5625 196.628906 L 278.085938 196.628906 C 278.835938 196.628906 279.6875 195.988281 279.6875 195.007812 C 279.6875 189.75 273.417969 185.050781 264.539062 185.050781 C 255.351562 185.050781 249.316406 189.429688 249.316406 196.402344 C 249.316406 201.734375 253.527344 204.910156 258.710938 206.265625 C 261.074219 206.882812 265.109375 207.878906 267.070312 208.394531 C 269.1875 208.949219 271.078125 209.59375 271.078125 211.410156 C 271.078125 214.269531 268.058594 215.246094 264.769531 215.246094 C 261.648438 215.246094 258.539062 213.851562 257.648438 211.625 C 257.128906 210.335938 256.226562 210.148438 254.859375 210.148438 L 250.257812 210.148438 C 249.453125 210.148438 248.53125 210.835938 248.53125 211.882812 L 248.53125 212.476562 C 248.53125 217.566406 255.359375 222.898438 264.777344 222.898438 C 271.457031 222.898438 280.765625 220.125 280.765625 211.164062 C 280.765625 205.976562 277.292969 202.382812 271.644531 200.949219 C 269.433594 200.390625 264.125 199.039062 262.972656 198.742188 C 260.910156 198.207031 258.996094 197.535156 258.996094 195.769531 C 258.996094 193.101562 261.460938 192.191406 264.542969 192.191406 Z M 97.050781 163.199219 C 97.25 163.199219 97.445312 163.164062 97.632812 163.085938 C 97.816406 163.007812 97.980469 162.898438 98.125 162.757812 C 98.265625 162.613281 98.375 162.449219 98.453125 162.265625 C 98.527344 162.078125 98.566406 161.886719 98.566406 161.683594 C 98.566406 161.484375 98.527344 161.289062 98.453125 161.105469 C 98.375 160.917969 98.265625 160.753906 98.125 160.613281 C 97.980469 160.46875 97.816406 160.359375 97.632812 160.285156 C 97.445312 160.207031 97.25 160.167969 97.050781 160.167969 C 96.851562 160.167969 96.65625 160.207031 96.46875 160.285156 C 96.285156 160.359375 96.121094 160.46875 95.976562 160.613281 C 95.835938 160.753906 95.726562 160.917969 95.648438 161.105469 C 95.574219 161.289062 95.535156 161.484375 95.535156 161.683594 C 95.535156 161.886719 95.574219 162.078125 95.648438 162.265625 C 95.726562 162.449219 95.835938 162.613281 95.976562 162.757812 C 96.121094 162.898438 96.285156 163.007812 96.46875 163.085938 C 96.65625 163.164062 96.851562 163.199219 97.050781 163.199219 Z M 76.6875 160.515625 C 76.855469 160.515625 77.015625 160.484375 77.175781 160.417969 C 77.332031 160.355469 77.46875 160.261719 77.585938 160.140625 C 77.707031 160.023438 77.800781 159.882812 77.863281 159.726562 C 77.929688 159.570312 77.960938 159.410156 77.960938 159.238281 C 77.960938 159.070312 77.929688 158.90625 77.863281 158.75 C 77.800781 158.59375 77.707031 158.457031 77.585938 158.335938 C 77.46875 158.21875 77.332031 158.125 77.175781 158.0625 C 77.015625 157.996094 76.855469 157.964844 76.6875 157.964844 C 76.515625 157.964844 76.355469 157.996094 76.199219 158.0625 C 76.039062 158.125 75.902344 158.21875 75.785156 158.335938 C 75.664062 158.457031 75.570312 158.59375 75.507812 158.75 C 75.441406 158.90625 75.410156 159.070312 75.410156 159.238281 C 75.410156 159.410156 75.441406 159.570312 75.507812 159.726562 C 75.570312 159.882812 75.664062 160.023438 75.785156 160.140625 C 75.902344 160.261719 76.039062 160.355469 76.199219 160.417969 C 76.355469 160.484375 76.515625 160.515625 76.6875 160.515625 Z M 61.417969 191.714844 L 60.796875 191.050781 C 62.527344 189.441406 64.363281 186.875 64.660156 185.367188 C 64.9375 183.96875 66.949219 184.191406 66.566406 185.714844 C 66.082031 187.660156 63.695312 190.011719 61.417969 191.714844 Z M 48.496094 161.046875 C 45.308594 162.425781 44.84375 165.695312 47.078125 167.65625 C 49.773438 170.019531 54.222656 167.960938 53.792969 164.34375 C 57.410156 164.527344 59.742188 160.792969 59.167969 158.171875 C 60.777344 156.792969 60.9375 153.847656 59.007812 152.691406 C 56.9375 151.453125 54.988281 151.929688 53.75 154.316406 C 50.4375 154.078125 47.261719 156.683594 48.496094 161.046875 L 46.960938 160.375 C 44.941406 156.144531 48.484375 151.824219 52.828125 152.820312 C 52.984375 152.480469 53.175781 152.160156 53.402344 151.859375 C 53.628906 151.5625 53.886719 151.289062 54.171875 151.046875 C 54.457031 150.800781 54.765625 150.589844 55.09375 150.414062 C 55.425781 150.234375 55.769531 150.09375 56.132812 149.992188 C 56.492188 149.890625 56.859375 149.828125 57.234375 149.804688 C 57.609375 149.78125 57.984375 149.796875 58.355469 149.851562 C 58.726562 149.910156 59.085938 150.007812 59.4375 150.140625 C 59.785156 150.277344 60.117188 150.445312 60.429688 150.652344 C 63.21875 152.34375 63.808594 156.703125 60.84375 158.816406 C 62.242188 162.882812 59.453125 166.207031 55.210938 165.828125 C 54.714844 171.058594 49.777344 171.734375 46.589844 169.25 C 44.789062 167.847656 44.054688 165.90625 43.707031 164.4375 C 43.339844 162.886719 43.339844 161.496094 41.808594 159.898438 C 40.65625 158.691406 38.589844 158.730469 38.589844 158.730469 C 38.589844 154.929688 35.035156 151.453125 30.621094 153.136719 C 29.058594 151.789062 27.125 151.65625 25.738281 153.320312 C 24.933594 154.289062 24.488281 156.832031 26.972656 157.996094 C 26.84375 161.460938 29.484375 163.671875 33.347656 163.367188 C 33.496094 165.207031 35.539062 166.917969 37.347656 167.164062 L 37.332031 168.085938 C 35.402344 167.902344 34.355469 168.574219 33.070312 170.171875 C 28.53125 169.957031 25.351562 171.976562 25.484375 175.230469 C 22.292969 175.835938 21.695312 179.175781 23.503906 180.957031 C 25.316406 182.734375 27.964844 182.039062 28.871094 179.914062 C 32.089844 180.527344 34.929688 178.21875 35.0625 175.558594 C 38.066406 175.558594 39.382812 174.371094 39.875 171.605469 L 41.007812 171.699219 C 41.34375 174.675781 39.964844 177.5 36.378906 177.164062 C 36.285156 180.714844 32.839844 182.703125 29.621094 181.476562 C 28.121094 184.296875 24.679688 185.425781 21.789062 182.671875 C 19 180.011719 20.019531 175.460938 23.667969 174.355469 C 23.75 170.871094 26.324219 167.5625 31.320312 168.839844 C 31.320312 168.839844 31.964844 167.285156 33.53125 167.191406 C 32.488281 166.761719 31.699219 166.1875 31.480469 165.113281 C 27.710938 165.917969 24.507812 162.445312 25.367188 158.953125 C 21.964844 157.160156 21.910156 153.800781 23.597656 151.804688 C 25.355469 149.722656 28.285156 149.261719 30.90625 151.503906 C 35.347656 149.046875 40.363281 152.058594 40.058594 157.117188 C 43.160156 156.910156 45.046875 159.621094 44.703125 162.449219 C 45.214844 161.203125 45.8125 160.625 46.960938 160.375 Z M 48.496094 161.046875 " fill-opacity="1" fill-rule="evenodd"/><path fill="#d9d9d9" d="M 56.125 154.976562 L 56.875 155.511719 C 55.417969 158.585938 52.84375 161.847656 50.636719 163.644531 L 49.792969 163.007812 C 51.355469 160.464844 54.714844 156.261719 56.125 154.976562 Z M 34.40625 171.851562 L 34.910156 172.601562 C 33.070312 174.488281 29.667969 177 27.859375 177.875 L 27.15625 177.109375 C 28.902344 175.222656 32.242188 172.753906 34.40625 171.851562 Z M 38.804688 162.722656 L 37.914062 163.820312 C 35.507812 162.242188 30.757812 157.996094 29.6875 156.464844 L 30.433594 155.699219 C 32.734375 156.867188 37.222656 160.867188 38.804688 162.722656 Z M 34.335938 203.003906 C 34.613281 204.378906 34.382812 205.90625 35.625 207.394531 C 36.0625 207.917969 38.472656 211.089844 40.222656 212.730469 C 37.847656 213.667969 33.09375 215.597656 29.675781 216.027344 C 28.992188 216.117188 28.222656 216.59375 27.574219 216.964844 C 27.148438 217.695312 26.707031 219 26.519531 220.476562 C 26.390625 221.53125 26.40625 222.703125 26.40625 223.902344 C 26.40625 224.957031 26.964844 228.273438 28.144531 230.5 C 29.324219 232.726562 30.460938 233.722656 31.855469 234.375 C 32.132812 234.253906 32.738281 234.160156 33.6875 234.140625 C 36.269531 234.082031 38.289062 235.507812 39.179688 236.734375 C 39.519531 237.203125 40.207031 237.296875 41.105469 237.296875 C 43.1875 237.296875 45.480469 236.609375 47.65625 235.78125 C 48.121094 235.398438 49.433594 234.527344 50.722656 233.511719 C 52.007812 232.503906 59.179688 226.421875 62.355469 224.882812 C 64.027344 225.789062 66.769531 226.957031 69.605469 226.957031 C 69.769531 226.957031 70.3125 226.960938 70.890625 226.835938 C 71.777344 226.632812 72.914062 226.238281 74.339844 225.957031 C 76.898438 225.460938 79.898438 225.023438 80.773438 225.035156 C 83.125 225.070312 90.019531 225.25 91.652344 225.25 C 93.367188 225.25 95.8125 225.101562 96.746094 225.007812 C 98.191406 224.53125 101.40625 223.640625 104.488281 222.21875 C 107.5625 220.855469 114.035156 216.363281 115.09375 215.339844 C 115.605469 214.878906 116.0625 214.375 116.398438 213.925781 C 116.527344 213.75 116.574219 213.679688 116.574219 213.542969 L 116.539062 209.003906 C 116.539062 209.003906 118.085938 207.285156 118.675781 206.691406 C 118.734375 206.636719 118.738281 206.554688 118.726562 206.5 C 118.460938 205.621094 118.195312 202.882812 118.347656 200.105469 L 116.78125 199.371094 C 116.710938 202.347656 115.875 205.085938 114.277344 207.597656 C 111.949219 207.964844 107.503906 209.34375 105.902344 211.164062 L 106.785156 211.417969 C 108.285156 210.585938 109.894531 210.007812 111.734375 210.007812 C 113.359375 210.007812 114.078125 210.433594 114.078125 210.890625 C 114.078125 211.210938 113.769531 211.980469 113.652344 212.222656 C 113.511719 212.5 113.417969 212.855469 113.144531 213.152344 C 110.910156 215.605469 108.34375 217.636719 105.441406 219.25 C 103.398438 220.390625 101.472656 221.160156 98.460938 222.015625 C 97.558594 222.269531 96.320312 222.632812 95.519531 222.910156 C 94.382812 222.875 88.453125 222.703125 84.988281 222.703125 C 81.527344 222.703125 74.382812 223.207031 72.113281 223.78125 C 71.082031 224.042969 70.828125 224.457031 69.628906 224.457031 C 67.390625 224.457031 64.457031 223.320312 62.65625 222.449219 C 62.394531 222.523438 61.742188 222.8125 61.09375 223.136719 C 59.8125 223.773438 56.96875 227.722656 55.316406 226.527344 C 54.46875 228.257812 50.824219 229.898438 49.578125 231.691406 C 49.714844 230.753906 51.1875 224.660156 51.324219 223.441406 C 51.351562 223.222656 51.367188 223.050781 51.230469 222.820312 C 49.898438 220.59375 46.179688 219.183594 44.082031 218.773438 C 43.464844 218.652344 43.160156 218.566406 42.75 218.472656 L 39.4375 217.472656 L 36.367188 218.472656 L 39.910156 219.152344 L 35.414062 222.132812 C 36.195312 221.832031 41.042969 220.488281 41.398438 220.382812 C 41.796875 220.265625 42.324219 220.148438 42.902344 220.347656 C 43.5625 220.578125 45.429688 221.007812 46.542969 221.394531 C 47.195312 221.621094 48.265625 222.820312 48.542969 223.460938 C 48.65625 223.726562 48.699219 224.289062 48.773438 225.53125 C 48.816406 226.3125 48.617188 227.402344 48.425781 228.246094 C 47.933594 230.457031 46.925781 232.183594 46.609375 232.800781 C 46.171875 233.648438 45.566406 233.921875 44.96875 234.203125 C 43.988281 234.664062 42.792969 234.953125 41.460938 234.972656 C 40.546875 234.980469 39.933594 234.933594 39.542969 234.40625 C 38.316406 232.746094 35.285156 231.140625 32.1875 231.738281 C 30.285156 230.589844 28.402344 226.878906 28.402344 223.925781 C 28.402344 222.152344 29.296875 219.359375 29.777344 217.957031 C 32.871094 217.542969 39.058594 215.1875 42.070312 213.820312 C 42.699219 213.789062 44.429688 213.175781 46.085938 213.175781 C 50.132812 213.175781 54.144531 216.714844 56.585938 219.105469 C 56.984375 218.449219 57.734375 217.453125 59.800781 217.453125 C 62.667969 217.453125 64.308594 220.058594 65.128906 222.738281 L 66.621094 221.652344 C 66.316406 219.949219 65.5625 218.476562 64.355469 217.234375 C 63.367188 216.246094 61.484375 215.425781 60.007812 215.425781 C 59.125 215.425781 58.203125 215.621094 57.621094 215.621094 C 55.574219 215.621094 54.738281 214.710938 53.230469 213.667969 C 51.597656 212.539062 48.558594 210.90625 46.394531 210.90625 C 44.996094 210.90625 44.371094 211.453125 43.21875 211.457031 C 41.527344 211.464844 40.898438 210.761719 40.085938 209.753906 C 39.730469 209.3125 38.015625 207.789062 37.558594 207.179688 C 37.296875 206.828125 36.828125 205.390625 36.660156 204.667969 Z M 34.335938 203.003906 " fill-opacity="1" fill-rule="evenodd"/><path fill="#d9d9d9" d="M 36.664062 204.667969 C 37.15625 205.195312 37.628906 205.777344 38.246094 206.246094 C 38.839844 206.695312 39.589844 207.085938 40.292969 207.484375 C 41.285156 208.046875 42.414062 208.691406 43.535156 209.046875 C 44.515625 209.34375 45.785156 209.464844 46.980469 209.464844 C 48.683594 209.464844 50.691406 209.113281 52.355469 209.890625 C 53.46875 210.410156 53.542969 211.585938 54.429688 211.929688 C 55.808594 212.46875 59.640625 212.59375 61.765625 212.59375 C 65.972656 212.59375 70.523438 212.058594 73.214844 211.417969 L 71.902344 209.972656 C 70.042969 210.265625 64.582031 210.863281 62.078125 210.863281 C 58.546875 210.863281 55.210938 210.296875 55.210938 208.835938 C 55.210938 207.828125 56.300781 206.367188 58.367188 206.367188 C 60.589844 206.367188 63.949219 207.710938 64.570312 207.894531 C 65.191406 208.078125 65.445312 208.03125 65.835938 207.851562 L 67.136719 207.179688 C 65.410156 206.375 59.398438 204.308594 57.304688 204.308594 C 56.3125 204.308594 55.777344 204.449219 55.132812 205.277344 C 54.328125 206.3125 52.183594 207.253906 48.757812 207.253906 C 46.878906 207.253906 44.191406 206.917969 43.601562 206.675781 C 42.570312 206.253906 40.550781 205.082031 39.257812 204.148438 C 37.589844 202.945312 36.140625 201.613281 35.140625 200.058594 C 34.847656 199.601562 34.703125 199.101562 34.707031 198.558594 C 34.710938 198.15625 34.824219 197.78125 34.863281 197.480469 C 35.164062 197.894531 35.484375 198.195312 35.894531 198.582031 C 37.707031 200.34375 40.375 201.664062 43.117188 202.191406 C 43.902344 202.339844 44.597656 202.457031 45.371094 202.457031 C 46.539062 202.457031 47.621094 201.832031 48.308594 201.214844 L 47.230469 199.960938 C 46.882812 200.066406 46.164062 200.066406 45.691406 200.066406 C 41.707031 200.066406 36.648438 197.460938 35.484375 194.449219 C 35.367188 194.152344 35.230469 193.988281 35.34375 193.714844 C 35.460938 193.433594 35.605469 192.847656 35.691406 192.308594 C 35.921875 192.578125 36.402344 192.980469 37.015625 193.375 C 38.496094 194.324219 41.320312 195.640625 41.875 195.984375 C 43.296875 195.574219 44.367188 195.097656 45.214844 194.660156 C 46.238281 194.121094 47.332031 193.847656 48.488281 193.839844 C 51.398438 193.839844 54.746094 195.503906 57.890625 197.050781 L 60.035156 196.203125 C 57.246094 194.246094 51.175781 191.5 47.804688 191.5 C 45.8125 191.5 43.941406 192.957031 42.609375 192.957031 C 40.972656 192.957031 36.285156 190.671875 36.285156 188.765625 C 36.285156 187.300781 39.320312 186.472656 44.195312 185.871094 C 43.347656 187.125 42.550781 188.410156 41.804688 189.730469 L 43.046875 190.421875 C 50.6875 179.355469 58.632812 172.171875 65.316406 167.796875 C 67.742188 166.207031 68.296875 165.277344 69.144531 163.542969 C 71.214844 159.308594 73.167969 156.054688 76.566406 156.054688 C 78.152344 156.054688 79.449219 156.945312 80.335938 158.050781 L 82.796875 158.785156 L 80.308594 160.46875 L 82.851562 161.480469 C 79.53125 162.410156 74.996094 165.640625 73.160156 170.378906 C 69.621094 170.566406 67.914062 173.433594 66.757812 175.832031 C 65.976562 177.449219 64.734375 178.097656 62.925781 179.320312 L 48.460938 189.40625 L 50.449219 189.679688 L 63.816406 180.730469 C 66.453125 178.953125 67.707031 177.640625 68.335938 176.378906 C 69.578125 173.898438 70.910156 172.054688 73.53125 172.054688 C 74.820312 172.054688 76.199219 172.609375 77.304688 173.648438 L 79.648438 174.414062 L 77.089844 175.980469 L 79.234375 177.296875 C 73.105469 179.21875 69.300781 183.609375 67.09375 192.007812 L 68.722656 192.378906 C 69.535156 189.597656 70.339844 187.046875 71.773438 184.796875 C 75.328125 184.753906 78.925781 184.625 82.453125 184.625 C 91.875 184.625 99.695312 185.023438 103.914062 186.265625 L 102.421875 183.671875 C 97.90625 182.90625 91.355469 182.507812 82.453125 182.507812 C 79.46875 182.507812 76.445312 182.617188 73.445312 182.648438 C 75.382812 180.597656 78.171875 178.875 82.46875 177.542969 L 79.417969 175.863281 L 82.804688 173.984375 L 78.191406 172.269531 C 77.382812 171.542969 76.382812 170.878906 75.121094 170.5625 C 76.59375 166.019531 81.628906 163.367188 86.453125 161.539062 L 83.074219 160.160156 L 86.484375 158.296875 L 81.234375 156.621094 C 79.863281 155.011719 78.542969 154.277344 76.519531 154.277344 C 71.652344 154.277344 69.605469 158.503906 67.675781 162.25 C 66.660156 164.222656 66.019531 165.050781 64.292969 166.183594 C 60.550781 168.632812 55.777344 172.375 51.222656 177.171875 C 48.839844 175.457031 43.980469 170.441406 42.65625 167.703125 C 42.136719 168.347656 41.621094 169.75 41.621094 169.75 C 42.121094 170.273438 47.847656 176.058594 49.976562 178.511719 L 49.496094 179.050781 C 47.226562 179.5 41.328125 180.066406 39.324219 179.796875 L 38.195312 181.792969 C 39.695312 181.648438 45.554688 180.957031 47.984375 180.816406 C 47.238281 181.71875 46.519531 182.636719 45.820312 183.578125 C 38.285156 184.433594 33.253906 185.980469 33.253906 188.761719 C 33.253906 189.21875 33.4375 189.742188 33.4375 190.234375 C 33.4375 191.398438 33.003906 191.824219 32.175781 192.347656 C 31.636719 192.6875 31.601562 192.921875 31.832031 193.246094 C 32.0625 193.570312 33.226562 195.289062 33.226562 195.628906 C 33.226562 196.183594 32.671875 196.746094 32.222656 197.242188 C 31.832031 197.679688 31.847656 197.796875 32.152344 198.347656 L 34.339844 202.992188 Z M 129.941406 178.824219 C 129.460938 179.332031 129.035156 179.871094 128.679688 180.445312 L 127.464844 178.742188 C 131.515625 173.34375 142.21875 170.808594 148.496094 170.363281 L 148.496094 167.46875 C 147.699219 167.714844 146.839844 167.988281 146.046875 168.179688 C 144.921875 168.449219 143.886719 168.699219 143.011719 168.675781 C 142.132812 168.65625 141.421875 168.304688 141.09375 167.835938 C 140.25 166.632812 141.035156 164.816406 143.792969 163.117188 L 141.617188 161.308594 C 139.9375 163.484375 138.285156 165.886719 136.601562 167.320312 C 135.074219 168.625 133.46875 169.277344 132.175781 168.308594 C 131.480469 167.789062 131.21875 167.550781 131.148438 166.195312 C 131.242188 164.199219 132.453125 161.152344 133.523438 159.191406 L 130.949219 158.886719 C 130.492188 161.894531 129.257812 164.457031 127.941406 166.570312 C 126.296875 169.207031 124.179688 171.054688 121.996094 172.570312 L 120.566406 171.160156 C 122.328125 170.121094 124.53125 168.433594 126.046875 166.105469 C 127.808594 163.398438 129.234375 160.054688 129.238281 157.015625 L 136.683594 157.722656 C 135.640625 159.050781 133.914062 162.082031 133.257812 164.261719 C 132.917969 165.398438 132.933594 166.300781 133.34375 166.609375 C 134.132812 167.203125 135.515625 166.257812 136.859375 164.820312 C 138.75 162.785156 140.605469 159.71875 141.421875 158.625 L 146.808594 163.09375 C 144.414062 164.363281 142.09375 165.8125 142.554688 166.625 C 142.976562 167.367188 144.511719 167.144531 146.191406 166.628906 C 147.589844 166.199219 148.921875 165.621094 150.1875 164.890625 L 150.1875 172.171875 C 147.589844 172.136719 143.191406 172.621094 138.957031 173.90625 C 139.964844 175.328125 142.855469 175.851562 144.695312 176.105469 L 143.773438 182.015625 C 139.136719 180.066406 135.558594 178.933594 129.941406 178.824219 L 131.800781 177.230469 C 135.941406 177.316406 140.089844 178.519531 142.441406 179.699219 L 142.78125 177.464844 C 140.660156 177.183594 137.992188 175.980469 136.863281 174.613281 C 135.015625 175.308594 133.269531 176.171875 131.800781 177.230469 Z M 129.941406 178.824219 " fill-opacity="1" fill-rule="evenodd"/><path fill="#d9d9d9" d="M 107.742188 197.601562 L 109.46875 193.875 C 107.4375 191.472656 105.585938 188.9375 103.914062 186.273438 L 102.421875 183.679688 C 98.972656 177.128906 100.226562 173.996094 98.386719 171.113281 C 96.867188 168.730469 89.472656 170.214844 88.246094 170.46875 L 90.386719 166.929688 L 86.171875 167.265625 L 89.742188 163.019531 C 90.132812 162.46875 90.316406 161.964844 90.730469 160.492188 C 91.359375 158.253906 93.28125 154.4375 98.90625 154.4375 C 105.152344 154.4375 107.085938 159.492188 109.808594 161.6875 C 113.53125 164.691406 117.113281 167.847656 120.5625 171.160156 L 121.992188 172.570312 C 123.839844 174.453125 125.726562 176.394531 127.464844 178.742188 L 128.679688 180.445312 C 136.195312 191.417969 145.535156 212.394531 149.664062 222 C 150.0625 222.929688 150.347656 223.875 150.597656 224.589844 C 147.476562 222.855469 144.453125 220.964844 141.523438 218.925781 L 139.667969 217.621094 C 138.503906 216.785156 137.355469 215.929688 136.21875 215.054688 L 134.316406 213.558594 C 133.167969 212.640625 132.039062 211.703125 130.925781 210.746094 L 134.6875 232.636719 C 134.960938 233.921875 136.0625 233.710938 136.953125 232.574219 C 137.84375 231.441406 138.179688 231.128906 137.84375 229.632812 L 134.316406 213.558594 L 136.21875 215.054688 L 139.601562 228.710938 C 139.929688 229.945312 140.449219 230.335938 141.890625 230.398438 C 143.332031 230.457031 143.636719 229.90625 143.332031 228.957031 L 139.671875 217.621094 L 141.523438 218.925781 L 144.988281 229.109375 C 145.878906 231.714844 144.988281 232.023438 143.425781 232.023438 C 141.863281 232.023438 140.453125 231.652344 139.59375 232.207031 C 138.738281 232.757812 137.660156 234.261719 136.375 235.585938 C 135.238281 236.746094 133.585938 236.441406 133.246094 234.261719 L 129.09375 209.132812 C 126.421875 206.742188 123.894531 204.207031 121.507812 201.527344 C 120.449219 201.070312 119.394531 200.597656 118.351562 200.101562 L 116.785156 199.371094 C 116.414062 199.195312 116.035156 199.03125 115.652344 198.882812 C 114.503906 200.265625 113.402344 201.804688 112.113281 202.910156 C 111.429688 203.496094 110.964844 203.832031 109.953125 203.832031 C 109.640625 203.832031 109.253906 203.828125 108.894531 203.625 C 108.507812 203.40625 108.148438 202.972656 107.746094 202.359375 C 107.441406 201.894531 106.988281 201.296875 106.59375 200.636719 C 105.773438 199.257812 104.886719 197.527344 104.089844 196.128906 C 103.195312 194.554688 102.425781 193.382812 102.320312 193.1875 C 102.160156 192.890625 101.722656 192.519531 101.722656 192.519531 C 101.285156 193.234375 100.960938 194.613281 100.960938 195.371094 L 99.398438 194.84375 C 99.605469 193.808594 100.023438 192.476562 100.25 191.832031 C 100.25 191.277344 99.628906 190.542969 99.125 190.542969 C 98.410156 190.542969 97.675781 191.324219 97.308594 192.820312 L 95.722656 193.511719 C 95.90625 191.09375 96.730469 188.453125 99.125 188.453125 C 101.054688 188.453125 102.25 189.925781 103.171875 191.304688 C 104.089844 192.679688 107.101562 196.796875 107.742188 197.601562 L 108.9375 199.113281 C 109.148438 200.0625 109.546875 200.609375 109.742188 200.910156 C 110.15625 201.554688 110.617188 201.507812 111.238281 200.933594 C 111.519531 200.671875 112.433594 199.929688 113.3125 199.011719 C 114.078125 198.210938 114.824219 197.238281 115.125 196.746094 C 116 197.140625 117.636719 197.925781 118.949219 198.5 C 113.308594 191.546875 107.902344 183.109375 105.558594 177.367188 C 104.589844 174.996094 106.484375 174.203125 107.398438 176.539062 C 109.882812 182.886719 117.148438 194.105469 122.480469 199.988281 C 128.648438 206.792969 139.953125 216.636719 147.308594 220.589844 C 146.246094 218.507812 144.835938 215.523438 143.210938 212.058594 C 134.261719 207 125.21875 197.703125 121.003906 189.722656 L 122.855469 189.933594 C 126.78125 196.871094 136.152344 206.125 141.6875 208.816406 C 136.625 198.078125 130.039062 184.464844 124.898438 178.609375 C 118.519531 171.347656 111.554688 165.730469 108.226562 162.808594 C 104.949219 159.925781 103.597656 156.308594 98.878906 156.308594 C 94.984375 156.308594 92.9375 159.113281 92.15625 161.941406 C 91.996094 162.496094 91.90625 162.839844 91.515625 163.414062 L 89.675781 165.621094 L 93.652344 165.136719 L 91.351562 168.355469 C 91.351562 168.355469 97.582031 166.957031 99.765625 169.917969 C 102.117188 173.113281 100.597656 176.699219 104.457031 183.667969 C 106.152344 186.730469 110.253906 192.238281 111.625 193.460938 L 108.9375 199.113281 Z M 46.476562 198.5625 L 45.535156 197.925781 C 46.328125 197.285156 47.195312 196.765625 48.128906 196.359375 C 48.636719 196.152344 49.160156 196.039062 49.707031 196.027344 C 50.765625 196.027344 51.675781 196.46875 52.5625 196.941406 C 53.96875 197.691406 55.546875 198.570312 56.757812 198.570312 C 57.21875 198.570312 57.664062 198.460938 58.183594 198.460938 C 59.382812 198.460938 60.53125 199 61.1875 199 C 61.589844 199 61.863281 198.640625 62.125 198.265625 C 62.785156 197.316406 63.695312 196.609375 64.859375 196.125 C 66.109375 195.601562 67.613281 195.394531 69.246094 195.394531 C 70.53125 195.394531 71.765625 195.578125 72.410156 195.71875 C 72.410156 195.71875 71.429688 196.902344 71.183594 197.164062 C 69.882812 197.164062 67.410156 197.117188 65.820312 197.761719 C 64.84375 198.15625 64.492188 198.722656 64.492188 199.535156 C 64.492188 200.703125 65.800781 201.164062 67.257812 201.605469 C 68.117188 201.863281 69.082031 201.929688 69.894531 201.929688 C 70.894531 201.929688 72.816406 201.550781 74.710938 201.136719 C 77 200.632812 79.128906 200.027344 79.75 199.800781 L 80.578125 201.285156 C 78.027344 202.148438 75.425781 202.964844 73.003906 203.457031 C 71.640625 203.734375 70.335938 203.90625 69.175781 203.90625 C 67.234375 203.90625 65.128906 203.09375 63.394531 202.265625 C 61.933594 201.570312 60.632812 200.882812 59.464844 200.882812 C 58.15625 200.882812 56.925781 201.335938 55.710938 202.027344 C 55.117188 202.367188 53.328125 203.601562 51.730469 204.226562 C 50.507812 204.714844 49.507812 204.984375 48.269531 204.984375 C 47.164062 204.984375 46.503906 204.824219 45.933594 204.378906 L 47.855469 203.203125 C 48.101562 203.449219 48.546875 203.492188 48.820312 203.492188 C 49.097656 203.492188 49.425781 203.457031 50.179688 203.144531 C 50.609375 202.964844 51.238281 202.578125 51.605469 202.34375 C 52.363281 201.851562 52.617188 201.566406 52.914062 201.328125 C 53.496094 200.871094 53.710938 200.261719 52.96875 199.597656 C 52.605469 199.257812 52.210938 198.949219 51.789062 198.683594 C 51.125 198.285156 50.644531 197.898438 49.445312 197.898438 C 48.023438 197.890625 47.023438 198.28125 46.476562 198.5625 Z M 46.476562 198.5625 " fill-opacity="1" fill-rule="evenodd"/><path fill="#d9d9d9" d="M 73.238281 199.328125 C 73.238281 199.328125 72.09375 199.007812 71.695312 198.980469 C 72.417969 198.019531 73.277344 197.199219 74.269531 196.523438 C 75.832031 195.464844 77.460938 194.890625 79.933594 194.738281 C 80.605469 194.699219 81.972656 194.570312 82.738281 194.601562 C 83.425781 194.632812 84.59375 194.675781 85.664062 194.875 C 86.425781 195.019531 87.132812 195.230469 87.71875 195.320312 C 88.078125 195.375 89.324219 195.359375 89.757812 195.289062 C 91.503906 195.015625 93.605469 194.339844 94.710938 193.738281 L 95.167969 195.417969 C 92.808594 196.621094 90.140625 197.785156 87.699219 197.785156 C 86.453125 197.785156 85.132812 197.6875 83.902344 197.574219 C 81.730469 197.367188 79.855469 197.078125 79.207031 197.078125 C 77.449219 197.078125 74.921875 197.894531 73.238281 199.328125 Z M 71.496094 208.671875 L 69.273438 207.65625 C 72.351562 206.097656 77.058594 204.535156 78.988281 204.222656 C 80.917969 203.921875 83.128906 203.6875 84.398438 203.257812 C 84.980469 204.730469 86.132812 206.304688 87.789062 206.304688 C 88.390625 206.304688 89.382812 205.847656 90.382812 205.40625 C 91.503906 204.914062 92.628906 204.375 93.210938 204.113281 C 93.84375 203.832031 95.890625 202.933594 97.621094 202.160156 C 98.492188 201.765625 99.351562 201.359375 100.207031 200.941406 L 101.375 201.574219 C 101.023438 203.105469 100.441406 204.988281 99.785156 206.335938 C 99.53125 206.863281 99.273438 207.300781 98.996094 207.613281 C 98.492188 208.183594 97.671875 208.941406 96.605469 209.699219 C 95.441406 210.527344 94.019531 211.375 92.511719 212.238281 C 91.335938 212.917969 90.15625 213.605469 88.957031 214.152344 L 88.335938 213.023438 C 90.183594 211.980469 92.058594 210.660156 93.710938 209.4375 C 94.488281 208.859375 95.246094 208.273438 95.785156 207.777344 C 96.1875 207.414062 96.4375 207.109375 96.636719 206.816406 C 97.128906 206.09375 97.925781 204.683594 98.171875 204.011719 C 97.480469 204.347656 94.875 205.578125 93.710938 206.1875 C 92.394531 206.878906 90.261719 207.964844 89.066406 208.53125 C 88.125 208.972656 87.285156 209.21875 86.683594 209.21875 C 85.351562 209.21875 84.742188 208.257812 84.417969 207.675781 C 83.574219 206.171875 82.667969 206.03125 80.292969 206.003906 C 77.535156 205.96875 73.75 207.109375 71.496094 208.671875 Z M 84.453125 201.738281 C 84.453125 201.738281 84.132812 200.429688 83.976562 199.949219 C 83.976562 199.949219 84.359375 199.824219 84.867188 199.824219 C 85.695312 199.824219 87.738281 200.054688 88.585938 200.054688 C 91.78125 200.054688 92.957031 199.050781 93.894531 198.203125 C 94.695312 197.484375 95.515625 196.894531 97.6875 196.894531 C 99.605469 196.894531 101.804688 197.667969 102.433594 197.972656 L 102.296875 199.71875 C 101.246094 199.15625 100.125 198.867188 98.9375 198.847656 C 98.144531 198.847656 97.433594 198.910156 96.929688 199.171875 C 96.363281 199.464844 96.019531 199.902344 95.488281 200.339844 C 94.925781 200.800781 94.15625 201.25 93.144531 201.625 C 92.132812 201.996094 90.882812 202.25 89.015625 202.25 C 86.554688 202.246094 85.21875 201.835938 84.453125 201.738281 Z M 84.453125 201.738281 " fill-opacity="1" fill-rule="evenodd"/><path fill="#d9d9d9" d="M 64.230469 214.910156 L 65.699219 214.300781 C 67.050781 214.820312 69 215.414062 70.355469 215.414062 C 71.171875 215.414062 71.84375 215.121094 72.398438 214.875 C 72.835938 214.679688 77.738281 212.273438 80.171875 211.390625 C 80.945312 211.109375 81.730469 210.953125 82.113281 210.953125 C 82.695312 210.953125 82.730469 211.214844 82.894531 211.484375 C 83.355469 212.21875 86.976562 217.386719 87.34375 217.785156 C 90.414062 216.839844 93.558594 215.457031 95.371094 213.71875 C 97.261719 211.894531 98.832031 209.785156 100.347656 208.152344 C 100.933594 207.523438 101.65625 206.953125 102.015625 206.761719 C 103.585938 205.925781 108.46875 205.855469 110.519531 205.945312 L 109.304688 207.671875 C 105.6875 207.671875 103.664062 208.042969 102.75 208.730469 C 102.367188 209.015625 101.785156 209.601562 101.230469 210.324219 C 99.996094 211.933594 98.648438 214.140625 98.109375 214.570312 C 99.167969 215.304688 100.324219 215.949219 102.160156 215.949219 C 105.226562 215.949219 107.421875 214.03125 108.625 212.945312 L 109.65625 213.558594 C 108.894531 214.550781 108.023438 215.5625 106.914062 216.316406 C 105.679688 217.152344 104.128906 217.695312 103.210938 217.949219 C 101.433594 217.613281 97.515625 216.820312 96.597656 216.636719 C 93.210938 218.019531 87.691406 220.25 85.839844 220.808594 C 85.429688 220.910156 85.011719 220.976562 84.589844 221.003906 C 83.125 221.085938 81.089844 221.074219 79.234375 221.054688 C 77.917969 221.035156 76.671875 221.042969 76.046875 220.929688 L 74.410156 219.222656 C 75.851562 219.496094 76.414062 219.582031 77.761719 219.582031 C 80.949219 219.582031 83 219.046875 83.679688 218.875 C 84.246094 218.730469 84.339844 218.402344 84.171875 217.886719 C 83.902344 217.070312 83.429688 216.292969 82.710938 215.460938 C 82.222656 214.925781 81.683594 214.441406 81.101562 214.003906 C 80.664062 213.703125 80.238281 213.628906 79.035156 214.039062 C 77.917969 214.417969 74.457031 216.292969 72.964844 217.085938 C 72.230469 217.476562 71.65625 217.59375 70.332031 217.277344 C 68.929688 216.949219 65.574219 215.722656 64.230469 214.910156 Z M 73.824219 176.5 C 73.992188 176.5 74.152344 176.46875 74.304688 176.40625 C 74.460938 176.339844 74.597656 176.25 74.714844 176.132812 C 74.832031 176.015625 74.921875 175.878906 74.984375 175.726562 C 75.050781 175.570312 75.082031 175.410156 75.082031 175.242188 C 75.082031 175.078125 75.050781 174.917969 74.984375 174.761719 C 74.921875 174.609375 74.832031 174.472656 74.714844 174.355469 C 74.597656 174.238281 74.460938 174.148438 74.304688 174.082031 C 74.152344 174.019531 73.992188 173.988281 73.824219 173.988281 C 73.660156 173.988281 73.5 174.019531 73.34375 174.082031 C 73.191406 174.148438 73.054688 174.238281 72.9375 174.355469 C 72.820312 174.472656 72.726562 174.609375 72.664062 174.761719 C 72.601562 174.917969 72.570312 175.078125 72.570312 175.242188 C 72.570312 175.410156 72.601562 175.570312 72.664062 175.726562 C 72.726562 175.878906 72.820312 176.015625 72.9375 176.132812 C 73.054688 176.25 73.191406 176.339844 73.34375 176.40625 C 73.5 176.46875 73.660156 176.5 73.824219 176.5 Z M 73.824219 176.5 " fill-opacity="1" fill-rule="evenodd"/></svg>