<svg xmlns="http://www.w3.org/2000/svg" xmlns:xlink="http://www.w3.org/1999/xlink" width="500" zoomAndPan="magnify" viewBox="0 0 375 374.999991" height="500" preserveAspectRatio="xMidYMid meet" version="1.0"><defs><g/><clipPath id="ddca32824c"><path d="M 142.363281 159.230469 L 181.339844 159.230469 L 181.339844 226.792969 L 142.363281 226.792969 Z M 142.363281 159.230469 " clip-rule="nonzero"/></clipPath><clipPath id="3402642b30"><path d="M 155.753906 226.714844 C 152.082031 226.714844 149.285156 225.863281 147.359375 224.160156 C 145.4375 222.457031 144.125 220.125 143.417969 217.15625 C 142.714844 214.191406 142.363281 210.828125 142.363281 207.070312 C 142.363281 203.046875 142.757812 199.75 143.550781 197.179688 C 144.34375 194.609375 145.703125 192.503906 147.625 190.859375 C 149.550781 189.214844 152.199219 187.816406 155.578125 186.671875 L 165.355469 183.324219 L 165.355469 176.542969 C 165.355469 172.988281 164.195312 171.210938 161.875 171.210938 C 159.761719 171.210938 158.703125 172.652344 158.703125 175.527344 L 158.703125 179.492188 L 143.375 179.492188 C 143.34375 179.261719 143.332031 178.957031 143.332031 178.589844 C 143.332031 178.222656 143.332031 177.808594 143.332031 177.335938 C 143.332031 170.757812 144.878906 166.097656 147.980469 163.351562 C 151.074219 160.605469 155.988281 159.230469 162.714844 159.230469 C 166.238281 159.230469 169.394531 159.855469 172.183594 161.101562 C 174.972656 162.351562 177.183594 164.195312 178.8125 166.632812 C 180.445312 169.070312 181.257812 172.078125 181.257812 175.664062 L 181.257812 226.011719 L 165.578125 226.011719 L 165.578125 218.171875 C 164.8125 220.933594 163.550781 223.046875 161.789062 224.515625 C 160.027344 225.980469 158.011719 226.714844 155.753906 226.714844 Z M 161.964844 214.46875 C 163.253906 214.46875 164.136719 213.929688 164.605469 212.839844 C 165.078125 211.753906 165.3125 210.578125 165.3125 209.316406 L 165.3125 190.902344 C 163.136719 191.785156 161.449219 192.894531 160.246094 194.230469 C 159.042969 195.566406 158.441406 197.527344 158.441406 200.109375 L 158.441406 208.613281 C 158.441406 212.515625 159.613281 214.46875 161.964844 214.46875 Z M 161.964844 214.46875 " clip-rule="nonzero"/></clipPath></defs><g clip-path="url(#ddca32824c)"><g clip-path="url(#3402642b30)"><path fill="#65ff67" d="M 142.363281 159.230469 L 181.339844 159.230469 L 181.339844 226.792969 L 142.363281 226.792969 Z M 142.363281 159.230469 " fill-opacity="1" fill-rule="nonzero"/></g></g><g fill="#2be42d" fill-opacity="1"><g transform="translate(64.502024, 225.282699)"><g><path d="M 29.753906 0 L 35.636719 0 L 35.636719 -39.871094 L 19.875 -39.871094 L 19.875 -30.578125 L 24.699219 -30.578125 L 24.699219 -19.289062 C 24.699219 -14.347656 24.582031 -13.171875 24.109375 -11.878906 C 23.285156 -9.996094 21.757812 -8.9375 19.992188 -8.9375 C 18.347656 -8.9375 17.054688 -9.761719 16.347656 -11.289062 C 15.640625 -12.703125 15.523438 -13.40625 15.523438 -19.289062 L 15.523438 -60.804688 C 15.523438 -67.625 16.464844 -69.390625 19.992188 -69.390625 C 23.875 -69.390625 24.933594 -67.039062 24.933594 -58.335938 C 24.933594 -56.570312 24.933594 -55.511719 24.699219 -52.925781 L 35.636719 -52.925781 C 35.871094 -55.980469 35.871094 -57.511719 35.871094 -59.15625 C 35.871094 -72.800781 30.578125 -79.621094 20.109375 -79.621094 C 9.761719 -79.621094 4.585938 -73.269531 4.585938 -60.804688 L 4.585938 -19.289062 C 4.585938 -12.230469 5.058594 -9.054688 6.820312 -5.761719 C 9.054688 -1.527344 13.40625 1.175781 17.996094 1.175781 C 21.757812 1.175781 25.050781 -0.941406 28.109375 -5.410156 Z M 29.753906 0 "/></g></g></g><g fill="#2be42d" fill-opacity="1"><g transform="translate(109.781645, 225.282699)"><g><path d="M 4.351562 0 L 14.582031 0 L 14.582031 -39.632812 C 14.582031 -45.515625 16.699219 -48.335938 21.167969 -48.335938 C 22.109375 -48.335938 22.816406 -48.21875 24.933594 -47.867188 L 24.933594 -59.273438 L 24.460938 -59.273438 C 20.464844 -59.273438 17.171875 -56.570312 14.582031 -51.160156 L 14.582031 -58.453125 L 4.351562 -58.453125 Z M 4.351562 0 "/></g></g></g><g fill="#2be42d" fill-opacity="1"><g transform="translate(139.760642, 225.282699)"><g/></g></g><g fill="#2be42d" fill-opacity="1"><g transform="translate(165.046801, 225.282699)"><g/></g></g><g fill="#2be42d" fill-opacity="1"><g transform="translate(190.3208, 225.282699)"><g><path d="M 4.351562 0 L 14.582031 0 L 14.582031 -5.527344 C 18.464844 -0.941406 21.050781 0.824219 24.226562 0.824219 C 26.578125 0.824219 29.167969 -0.589844 30.34375 -2.585938 C 31.636719 -4.585938 31.988281 -6.820312 31.988281 -12.9375 L 31.988281 -45.515625 C 31.988281 -51.511719 31.636719 -53.863281 30.34375 -55.863281 C 29.167969 -57.863281 26.695312 -59.273438 24.226562 -59.273438 C 21.167969 -59.273438 18.464844 -57.511719 14.582031 -52.925781 L 14.582031 -78.445312 L 4.351562 -78.445312 Z M 21.757812 -12.9375 C 21.757812 -9.996094 20.933594 -8.585938 19.171875 -8.585938 C 17.757812 -8.585938 16.699219 -9.171875 14.582031 -10.9375 L 14.582031 -47.515625 C 16.699219 -49.277344 17.757812 -49.867188 19.171875 -49.867188 C 20.933594 -49.867188 21.757812 -48.335938 21.757812 -45.515625 Z M 21.757812 -12.9375 "/></g></g></g><g fill="#2be42d" fill-opacity="1"><g transform="translate(231.601721, 225.282699)"><g><path d="M 22.582031 0 L 31.988281 0 L 31.988281 -58.453125 L 21.757812 -58.453125 L 21.757812 -10.9375 C 19.640625 -9.171875 18.582031 -8.585938 17.171875 -8.585938 C 15.40625 -8.585938 14.582031 -9.996094 14.582031 -12.9375 L 14.582031 -58.453125 L 4.351562 -58.453125 L 4.351562 -12.585938 C 4.351562 -6.703125 4.703125 -4.46875 6 -2.46875 C 7.175781 -0.589844 9.761719 0.824219 12.230469 0.824219 C 15.171875 0.824219 17.523438 -0.589844 21.757812 -5.058594 Z M 22.582031 0 "/></g></g></g><g fill="#2be42d" fill-opacity="1"><g transform="translate(273.000255, 225.282699)"><g><path d="M 4.351562 19.992188 L 14.582031 19.992188 L 14.582031 -5.527344 C 18.464844 -0.941406 21.167969 0.824219 24.226562 0.824219 C 26.695312 0.824219 29.167969 -0.589844 30.34375 -2.585938 C 31.636719 -4.585938 31.988281 -6.9375 31.988281 -12.9375 L 31.988281 -45.515625 C 31.988281 -51.628906 31.636719 -53.863281 30.34375 -55.863281 C 29.167969 -57.863281 26.578125 -59.273438 24.226562 -59.273438 C 21.050781 -59.273438 18.464844 -57.511719 14.582031 -52.925781 L 14.347656 -58.453125 L 4.351562 -58.453125 Z M 21.757812 -12.9375 C 21.757812 -9.996094 20.933594 -8.585938 19.171875 -8.585938 C 17.757812 -8.585938 16.699219 -9.171875 14.582031 -10.9375 L 14.582031 -47.515625 C 16.699219 -49.277344 17.757812 -49.867188 19.171875 -49.867188 C 20.933594 -49.867188 21.757812 -48.335938 21.757812 -45.515625 Z M 21.757812 -12.9375 "/></g></g></g></svg>