<svg xmlns="http://www.w3.org/2000/svg" xmlns:xlink="http://www.w3.org/1999/xlink" width="500" zoomAndPan="magnify" viewBox="0 0 375 374.999991" height="500" preserveAspectRatio="xMidYMid meet" version="1.0"><defs><clipPath id="6e8dfbd940"><path d="M 142.363281 159.230469 L 181.339844 159.230469 L 181.339844 226.792969 L 142.363281 226.792969 Z M 142.363281 159.230469 " clip-rule="nonzero"/></clipPath><clipPath id="e8a176a83b"><path d="M 155.753906 226.714844 C 152.082031 226.714844 149.285156 225.863281 147.359375 224.160156 C 145.4375 222.457031 144.125 220.125 143.417969 217.15625 C 142.714844 214.191406 142.363281 210.828125 142.363281 207.070312 C 142.363281 203.046875 142.757812 199.75 143.550781 197.179688 C 144.34375 194.609375 145.703125 192.503906 147.625 190.859375 C 149.550781 189.214844 152.199219 187.816406 155.578125 186.671875 L 165.355469 183.324219 L 165.355469 176.542969 C 165.355469 172.988281 164.195312 171.210938 161.875 171.210938 C 159.761719 171.210938 158.703125 172.652344 158.703125 175.527344 L 158.703125 179.492188 L 143.375 179.492188 C 143.34375 179.261719 143.332031 178.957031 143.332031 178.589844 C 143.332031 178.222656 143.332031 177.808594 143.332031 177.335938 C 143.332031 170.757812 144.878906 166.097656 147.980469 163.351562 C 151.074219 160.605469 155.988281 159.230469 162.714844 159.230469 C 166.238281 159.230469 169.394531 159.855469 172.183594 161.101562 C 174.972656 162.351562 177.183594 164.195312 178.8125 166.632812 C 180.445312 169.070312 181.257812 172.078125 181.257812 175.664062 L 181.257812 226.011719 L 165.578125 226.011719 L 165.578125 218.171875 C 164.8125 220.933594 163.550781 223.046875 161.789062 224.515625 C 160.027344 225.980469 158.011719 226.714844 155.753906 226.714844 Z M 161.964844 214.46875 C 163.253906 214.46875 164.136719 213.929688 164.605469 212.839844 C 165.078125 211.753906 165.3125 210.578125 165.3125 209.316406 L 165.3125 190.902344 C 163.136719 191.785156 161.449219 192.894531 160.246094 194.230469 C 159.042969 195.566406 158.441406 197.527344 158.441406 200.109375 L 158.441406 208.613281 C 158.441406 212.515625 159.613281 214.46875 161.964844 214.46875 Z M 161.964844 214.46875 " clip-rule="nonzero"/></clipPath></defs><g clip-path="url(#6e8dfbd940)"><g clip-path="url(#e8a176a83b)"><path fill="#65ff67" d="M 142.363281 159.230469 L 181.339844 159.230469 L 181.339844 226.792969 L 142.363281 226.792969 Z M 142.363281 159.230469 " fill-opacity="1" fill-rule="nonzero"/></g></g><path fill="#2be42d" d="M 94.257812 225.28125 L 100.140625 225.28125 L 100.140625 185.410156 L 84.378906 185.410156 L 84.378906 194.703125 L 89.203125 194.703125 L 89.203125 205.992188 C 89.203125 210.933594 89.085938 212.109375 88.613281 213.402344 C 87.789062 215.285156 86.261719 216.34375 84.496094 216.34375 C 82.851562 216.34375 81.558594 215.519531 80.851562 213.992188 C 80.144531 212.578125 80.027344 211.875 80.027344 205.992188 L 80.027344 164.476562 C 80.027344 157.65625 80.96875 155.890625 84.496094 155.890625 C 88.378906 155.890625 89.4375 158.242188 89.4375 166.945312 C 89.4375 168.710938 89.4375 169.769531 89.203125 172.355469 L 100.140625 172.355469 C 100.375 169.300781 100.375 167.769531 100.375 166.125 C 100.375 152.480469 95.082031 145.660156 84.613281 145.660156 C 74.265625 145.660156 69.089844 152.011719 69.089844 164.476562 L 69.089844 205.992188 C 69.089844 213.050781 69.5625 216.226562 71.324219 219.519531 C 73.558594 223.753906 77.910156 226.457031 82.5 226.457031 C 86.261719 226.457031 89.554688 224.339844 92.613281 219.871094 Z M 94.257812 225.28125 " fill-opacity="1" fill-rule="nonzero"/><path fill="#2be42d" d="M 114.132812 225.28125 L 124.363281 225.28125 L 124.363281 185.648438 C 124.363281 179.765625 126.480469 176.945312 130.949219 176.945312 C 131.890625 176.945312 132.597656 177.0625 134.714844 177.414062 L 134.714844 166.007812 L 134.242188 166.007812 C 130.246094 166.007812 126.953125 168.710938 124.363281 174.121094 L 124.363281 166.828125 L 114.132812 166.828125 Z M 114.132812 225.28125 " fill-opacity="1" fill-rule="nonzero"/><path fill="#2be42d" d="M 194.671875 225.28125 L 204.902344 225.28125 L 204.902344 219.753906 C 208.785156 224.339844 211.371094 226.105469 214.546875 226.105469 C 216.898438 226.105469 219.488281 224.691406 220.664062 222.695312 C 221.957031 220.695312 222.308594 218.460938 222.308594 212.34375 L 222.308594 179.765625 C 222.308594 173.769531 221.957031 171.417969 220.664062 169.417969 C 219.488281 167.417969 217.015625 166.007812 214.546875 166.007812 C 211.488281 166.007812 208.785156 167.769531 204.902344 172.355469 L 204.902344 146.835938 L 194.671875 146.835938 Z M 212.078125 212.34375 C 212.078125 215.285156 211.253906 216.695312 209.492188 216.695312 C 208.078125 216.695312 207.019531 216.109375 204.902344 214.34375 L 204.902344 177.765625 C 207.019531 176.003906 208.078125 175.414062 209.492188 175.414062 C 211.253906 175.414062 212.078125 176.945312 212.078125 179.765625 Z M 212.078125 212.34375 " fill-opacity="1" fill-rule="nonzero"/><path fill="#2be42d" d="M 254.183594 225.28125 L 263.589844 225.28125 L 263.589844 166.828125 L 253.359375 166.828125 L 253.359375 214.34375 C 251.242188 216.109375 250.183594 216.695312 248.773438 216.695312 C 247.007812 216.695312 246.183594 215.285156 246.183594 212.34375 L 246.183594 166.828125 L 235.953125 166.828125 L 235.953125 212.695312 C 235.953125 218.578125 236.304688 220.8125 237.601562 222.8125 C 238.777344 224.691406 241.363281 226.105469 243.832031 226.105469 C 246.773438 226.105469 249.125 224.691406 253.359375 220.222656 Z M 254.183594 225.28125 " fill-opacity="1" fill-rule="nonzero"/><path fill="#2be42d" d="M 277.351562 245.273438 L 287.582031 245.273438 L 287.582031 219.753906 C 291.464844 224.339844 294.167969 226.105469 297.226562 226.105469 C 299.695312 226.105469 302.167969 224.691406 303.34375 222.695312 C 304.636719 220.695312 304.988281 218.34375 304.988281 212.34375 L 304.988281 179.765625 C 304.988281 173.652344 304.636719 171.417969 303.34375 169.417969 C 302.167969 167.417969 299.578125 166.007812 297.226562 166.007812 C 294.050781 166.007812 291.464844 167.769531 287.582031 172.355469 L 287.347656 166.828125 L 277.351562 166.828125 Z M 294.757812 212.34375 C 294.757812 215.285156 293.933594 216.695312 292.171875 216.695312 C 290.757812 216.695312 289.699219 216.109375 287.582031 214.34375 L 287.582031 177.765625 C 289.699219 176.003906 290.757812 175.414062 292.171875 175.414062 C 293.933594 175.414062 294.757812 176.945312 294.757812 179.765625 Z M 294.757812 212.34375 " fill-opacity="1" fill-rule="nonzero"/></svg>